<svg width="163" height="27" viewBox="0 0 163 27" fill="none" xmlns="http://www.w3.org/2000/svg">
<path d="M5.456 13.68H16.208V17.84H5.456V13.68ZM5.84 26H0.656V3.6H17.584V7.76H5.84V26ZM20.7415 26V8.784H25.7335V26H20.7415ZM23.2375 6.384C22.3202 6.384 21.5735 6.11733 20.9975 5.584C20.4215 5.05067 20.1335 4.38933 20.1335 3.6C20.1335 2.81067 20.4215 2.14933 20.9975 1.616C21.5735 1.08267 22.3202 0.815998 23.2375 0.815998C24.1548 0.815998 24.9015 1.072 25.4775 1.584C26.0535 2.07467 26.3415 2.71467 26.3415 3.504C26.3415 4.336 26.0535 5.02933 25.4775 5.584C24.9228 6.11733 24.1762 6.384 23.2375 6.384ZM37.4065 26.256C35.3798 26.256 33.8012 25.744 32.6705 24.72C31.5398 23.6747 30.9745 22.128 30.9745 20.08V4.976H35.9665V20.016C35.9665 20.7413 36.1585 21.3067 36.5425 21.712C36.9265 22.096 37.4492 22.288 38.1105 22.288C38.8998 22.288 39.5718 22.0747 40.1265 21.648L41.4705 25.168C40.9585 25.5307 40.3398 25.808 39.6145 26C38.9105 26.1707 38.1745 26.256 37.4065 26.256ZM28.3185 13.008V9.168H40.2545V13.008H28.3185ZM54.7368 8.528C56.1021 8.528 57.3181 8.80533 58.3848 9.36C59.4728 9.89333 60.3261 10.7253 60.9448 11.856C61.5634 12.9653 61.8728 14.3947 61.8728 16.144V26H56.8808V16.912C56.8808 15.5253 56.5714 14.5013 55.9528 13.84C55.3554 13.1787 54.5021 12.848 53.3928 12.848C52.6034 12.848 51.8888 13.0187 51.2488 13.36C50.6301 13.68 50.1394 14.1813 49.7768 14.864C49.4354 15.5467 49.2648 16.4213 49.2648 17.488V26H44.2728V8.784H49.0408V13.552L48.1448 12.112C48.7634 10.96 49.6488 10.0747 50.8008 9.456C51.9528 8.83733 53.2648 8.528 54.7368 8.528ZM75.0668 26.256C73.1041 26.256 71.3761 25.872 69.8828 25.104C68.4108 24.336 67.2694 23.2907 66.4588 21.968C65.6481 20.624 65.2428 19.0987 65.2428 17.392C65.2428 15.664 65.6374 14.1387 66.4268 12.816C67.2374 11.472 68.3361 10.4267 69.7228 9.68C71.1094 8.912 72.6774 8.528 74.4268 8.528C76.1121 8.528 77.6268 8.89067 78.9708 9.616C80.3361 10.32 81.4134 11.344 82.2028 12.688C82.9921 14.0107 83.3868 15.6 83.3868 17.456C83.3868 17.648 83.3761 17.872 83.3548 18.128C83.3334 18.3627 83.3121 18.5867 83.2908 18.8H69.3068V15.888H80.6667L78.7468 16.752C78.7468 15.856 78.5654 15.0773 78.2028 14.416C77.8401 13.7547 77.3388 13.2427 76.6988 12.88C76.0588 12.496 75.3121 12.304 74.4588 12.304C73.6054 12.304 72.8481 12.496 72.1868 12.88C71.5468 13.2427 71.0454 13.7653 70.6828 14.448C70.3201 15.1093 70.1388 15.8987 70.1388 16.816V17.584C70.1388 18.5227 70.3414 19.3547 70.7468 20.08C71.1734 20.784 71.7601 21.328 72.5068 21.712C73.2748 22.0747 74.1708 22.256 75.1948 22.256C76.1121 22.256 76.9121 22.1173 77.5948 21.84C78.2988 21.5627 78.9388 21.1467 79.5148 20.592L82.1708 23.472C81.3814 24.368 80.3894 25.0613 79.1948 25.552C78.0001 26.0213 76.6241 26.256 75.0668 26.256ZM92.5023 26.256C91.0303 26.256 89.6116 26.0853 88.2463 25.744C86.9023 25.3813 85.8356 24.9333 85.0463 24.4L86.7103 20.816C87.4996 21.3067 88.4276 21.712 89.4943 22.032C90.5823 22.3307 91.6489 22.48 92.6943 22.48C93.8463 22.48 94.6569 22.3413 95.1263 22.064C95.6169 21.7867 95.8623 21.4027 95.8623 20.912C95.8623 20.5067 95.6703 20.208 95.2863 20.016C94.9236 19.8027 94.4329 19.6427 93.8142 19.536C93.1956 19.4293 92.5129 19.3227 91.7663 19.216C91.0409 19.1093 90.3049 18.9707 89.5583 18.8C88.8116 18.608 88.1289 18.3307 87.5103 17.968C86.8916 17.6053 86.3903 17.1147 86.0063 16.496C85.6436 15.8773 85.4622 15.0773 85.4622 14.096C85.4622 13.008 85.7716 12.048 86.3903 11.216C87.0303 10.384 87.9476 9.73333 89.1423 9.264C90.3369 8.77333 91.7663 8.528 93.4303 8.528C94.6036 8.528 95.7983 8.656 97.0143 8.912C98.2303 9.168 99.2436 9.54133 100.054 10.032L98.3903 13.584C97.5583 13.0933 96.7156 12.7627 95.8623 12.592C95.0303 12.4 94.2196 12.304 93.4303 12.304C92.3209 12.304 91.5103 12.4533 90.9983 12.752C90.4863 13.0507 90.2303 13.4347 90.2303 13.904C90.2303 14.3307 90.4116 14.6507 90.7743 14.864C91.1583 15.0773 91.6596 15.248 92.2783 15.376C92.8969 15.504 93.5689 15.6213 94.2943 15.728C95.0409 15.8133 95.7876 15.952 96.5343 16.144C97.2809 16.336 97.9529 16.6133 98.5503 16.976C99.1689 17.3173 99.6703 17.7973 100.054 18.416C100.438 19.0133 100.63 19.8027 100.63 20.784C100.63 21.8507 100.31 22.8 99.6703 23.632C99.0303 24.4427 98.1023 25.0827 96.8863 25.552C95.6916 26.0213 94.2303 26.256 92.5023 26.256ZM109.502 26.256C108.03 26.256 106.612 26.0853 105.246 25.744C103.902 25.3813 102.836 24.9333 102.046 24.4L103.71 20.816C104.5 21.3067 105.428 21.712 106.494 22.032C107.582 22.3307 108.649 22.48 109.694 22.48C110.846 22.48 111.657 22.3413 112.126 22.064C112.617 21.7867 112.862 21.4027 112.862 20.912C112.862 20.5067 112.67 20.208 112.286 20.016C111.924 19.8027 111.433 19.6427 110.814 19.536C110.196 19.4293 109.513 19.3227 108.766 19.216C108.041 19.1093 107.305 18.9707 106.558 18.8C105.812 18.608 105.129 18.3307 104.51 17.968C103.892 17.6053 103.39 17.1147 103.006 16.496C102.644 15.8773 102.462 15.0773 102.462 14.096C102.462 13.008 102.772 12.048 103.39 11.216C104.03 10.384 104.948 9.73333 106.142 9.264C107.337 8.77333 108.766 8.528 110.43 8.528C111.604 8.528 112.798 8.656 114.014 8.912C115.23 9.168 116.244 9.54133 117.054 10.032L115.39 13.584C114.558 13.0933 113.716 12.7627 112.862 12.592C112.03 12.4 111.22 12.304 110.43 12.304C109.321 12.304 108.51 12.4533 107.998 12.752C107.486 13.0507 107.23 13.4347 107.23 13.904C107.23 14.3307 107.412 14.6507 107.774 14.864C108.158 15.0773 108.66 15.248 109.278 15.376C109.897 15.504 110.569 15.6213 111.294 15.728C112.041 15.8133 112.788 15.952 113.534 16.144C114.281 16.336 114.953 16.6133 115.55 16.976C116.169 17.3173 116.67 17.7973 117.054 18.416C117.438 19.0133 117.63 19.8027 117.63 20.784C117.63 21.8507 117.31 22.8 116.67 23.632C116.03 24.4427 115.102 25.0827 113.886 25.552C112.692 26.0213 111.23 26.256 109.502 26.256Z" fill="#DDDDDD"/>
<path d="M127.27 13.136H137.126V18.832H127.27V13.136ZM127.782 26H120.23V3.6H138.438V9.296H127.782V26ZM152.252 26.512C150.46 26.512 148.796 26.2347 147.26 25.68C145.745 25.104 144.422 24.2933 143.292 23.248C142.182 22.2027 141.318 20.9653 140.7 19.536C140.081 18.1067 139.772 16.528 139.772 14.8C139.772 13.072 140.081 11.4933 140.7 10.064C141.318 8.63467 142.182 7.39733 143.292 6.352C144.422 5.30667 145.745 4.50667 147.26 3.952C148.796 3.376 150.46 3.088 152.252 3.088C154.449 3.088 156.39 3.472 158.076 4.24C159.782 5.008 161.19 6.11733 162.3 7.568L157.532 11.824C156.87 10.992 156.134 10.352 155.324 9.904C154.534 9.43467 153.638 9.2 152.636 9.2C151.846 9.2 151.132 9.328 150.492 9.584C149.852 9.84 149.297 10.2133 148.828 10.704C148.38 11.1947 148.028 11.792 147.772 12.496C147.516 13.1787 147.388 13.9467 147.388 14.8C147.388 15.6533 147.516 16.432 147.772 17.136C148.028 17.8187 148.38 18.4053 148.828 18.896C149.297 19.3867 149.852 19.76 150.492 20.016C151.132 20.272 151.846 20.4 152.636 20.4C153.638 20.4 154.534 20.176 155.324 19.728C156.134 19.2587 156.87 18.608 157.532 17.776L162.3 22.032C161.19 23.4613 159.782 24.5707 158.076 25.36C156.39 26.128 154.449 26.512 152.252 26.512Z" fill="white"/>
</svg>
